<svg height="304pt" viewBox="0.00 0.00 308.00 304.00" width="308pt" xmlns="http://www.w3.org/2000/svg" xmlns:xlink="http://www.w3.org/1999/xlink">
<g class="graph" id="graph0" transform="scale(1 1) rotate(0) translate(4 300)">
<title>G</title>
<polygon fill="white" points="-4,4 -4,-300 304,-300 304,4 -4,4" stroke="none"/>
<!-- 140326628647120 -->
<g class="node" id="node1"><title>140326628647120</title>
<polygon fill="none" points="-2.84217e-14,-249.5 -2.84217e-14,-295.5 300,-295.5 300,-249.5 -2.84217e-14,-249.5" stroke="black"/>
<text font-family="Times,serif" font-size="14.00" text-anchor="middle" x="80.5" y="-268.8">Layer 1_input: InputLayer</text>
<polyline fill="none" points="161,-249.5 161,-295.5 " stroke="black"/>
<text font-family="Times,serif" font-size="14.00" text-anchor="middle" x="189" y="-280.3">input:</text>
<polyline fill="none" points="161,-272.5 217,-272.5 " stroke="black"/>
<text font-family="Times,serif" font-size="14.00" text-anchor="middle" x="189" y="-257.3">output:</text>
<polyline fill="none" points="217,-249.5 217,-295.5 " stroke="black"/>
<text font-family="Times,serif" font-size="14.00" text-anchor="middle" x="258.5" y="-280.3">(None, 100)</text>
<polyline fill="none" points="217,-272.5 300,-272.5 " stroke="black"/>
<text font-family="Times,serif" font-size="14.00" text-anchor="middle" x="258.5" y="-257.3">(None, 100)</text>
</g>
<!-- 140326628560720 -->
<g class="node" id="node2"><title>140326628560720</title>
<polygon fill="none" points="31.5,-166.5 31.5,-212.5 268.5,-212.5 268.5,-166.5 31.5,-166.5" stroke="black"/>
<text font-family="Times,serif" font-size="14.00" text-anchor="middle" x="80.5" y="-185.8">Layer 1: Dense</text>
<polyline fill="none" points="129.5,-166.5 129.5,-212.5 " stroke="black"/>
<text font-family="Times,serif" font-size="14.00" text-anchor="middle" x="157.5" y="-197.3">input:</text>
<polyline fill="none" points="129.5,-189.5 185.5,-189.5 " stroke="black"/>
<text font-family="Times,serif" font-size="14.00" text-anchor="middle" x="157.5" y="-174.3">output:</text>
<polyline fill="none" points="185.5,-166.5 185.5,-212.5 " stroke="black"/>
<text font-family="Times,serif" font-size="14.00" text-anchor="middle" x="227" y="-197.3">(None, 100)</text>
<polyline fill="none" points="185.5,-189.5 268.5,-189.5 " stroke="black"/>
<text font-family="Times,serif" font-size="14.00" text-anchor="middle" x="227" y="-174.3">(None, 70)</text>
</g>
<!-- 140326628647120&#45;&gt;140326628560720 -->
<g class="edge" id="edge1"><title>140326628647120-&gt;140326628560720</title>
<path d="M150,-249.366C150,-241.152 150,-231.658 150,-222.725" fill="none" stroke="black"/>
<polygon fill="black" points="153.5,-222.607 150,-212.607 146.5,-222.607 153.5,-222.607" stroke="black"/>
</g>
<!-- 140326598452688 -->
<g class="node" id="node3"><title>140326598452688</title>
<polygon fill="none" points="34.5,-83.5 34.5,-129.5 265.5,-129.5 265.5,-83.5 34.5,-83.5" stroke="black"/>
<text font-family="Times,serif" font-size="14.00" text-anchor="middle" x="83.5" y="-102.8">Layer 2: Dense</text>
<polyline fill="none" points="132.5,-83.5 132.5,-129.5 " stroke="black"/>
<text font-family="Times,serif" font-size="14.00" text-anchor="middle" x="160.5" y="-114.3">input:</text>
<polyline fill="none" points="132.5,-106.5 188.5,-106.5 " stroke="black"/>
<text font-family="Times,serif" font-size="14.00" text-anchor="middle" x="160.5" y="-91.3">output:</text>
<polyline fill="none" points="188.5,-83.5 188.5,-129.5 " stroke="black"/>
<text font-family="Times,serif" font-size="14.00" text-anchor="middle" x="227" y="-114.3">(None, 70)</text>
<polyline fill="none" points="188.5,-106.5 265.5,-106.5 " stroke="black"/>
<text font-family="Times,serif" font-size="14.00" text-anchor="middle" x="227" y="-91.3">(None, 70)</text>
</g>
<!-- 140326628560720&#45;&gt;140326598452688 -->
<g class="edge" id="edge2"><title>140326628560720-&gt;140326598452688</title>
<path d="M150,-166.366C150,-158.152 150,-148.658 150,-139.725" fill="none" stroke="black"/>
<polygon fill="black" points="153.5,-139.607 150,-129.607 146.5,-139.607 153.5,-139.607" stroke="black"/>
</g>
<!-- 140326598452944 -->
<g class="node" id="node4"><title>140326598452944</title>
<polygon fill="none" points="35,-0.5 35,-46.5 265,-46.5 265,-0.5 35,-0.5" stroke="black"/>
<text font-family="Times,serif" font-size="14.00" text-anchor="middle" x="83.5" y="-19.8">Output: Dense</text>
<polyline fill="none" points="132,-0.5 132,-46.5 " stroke="black"/>
<text font-family="Times,serif" font-size="14.00" text-anchor="middle" x="160" y="-31.3">input:</text>
<polyline fill="none" points="132,-23.5 188,-23.5 " stroke="black"/>
<text font-family="Times,serif" font-size="14.00" text-anchor="middle" x="160" y="-8.3">output:</text>
<polyline fill="none" points="188,-0.5 188,-46.5 " stroke="black"/>
<text font-family="Times,serif" font-size="14.00" text-anchor="middle" x="226.5" y="-31.3">(None, 70)</text>
<polyline fill="none" points="188,-23.5 265,-23.5 " stroke="black"/>
<text font-family="Times,serif" font-size="14.00" text-anchor="middle" x="226.5" y="-8.3">(None, 3)</text>
</g>
<!-- 140326598452688&#45;&gt;140326598452944 -->
<g class="edge" id="edge3"><title>140326598452688-&gt;140326598452944</title>
<path d="M150,-83.3664C150,-75.1516 150,-65.6579 150,-56.7252" fill="none" stroke="black"/>
<polygon fill="black" points="153.5,-56.6068 150,-46.6068 146.5,-56.6069 153.5,-56.6068" stroke="black"/>
</g>
</g>
</svg>